<svg xmlns="http://www.w3.org/2000/svg" style="display:none">
  <symbol id="icon-logo-red" viewBox="0 0 35.4807 32.3669">
    <path d="M35.4807 15.1385L18.7411 32.3669H4.04422L21.462 15.1385H35.4807Z" fill="#DD0000"/>
  </symbol>
  <symbol id="icon-logo-black" viewBox="0 0 35.4807 32.3669">
    <path d="M18.6607 0H32.5533L14.6267 16.6512H0L18.6607 0Z" fill="black"/>
  </symbol>
  <symbol id="icon-info" viewBox="0 0 16 16">
    <path d="M8 10.6669V8M8 5.33312H8.00667M14.6672 8C14.6672 11.6822 11.6822 14.6672 8 14.6672C4.31781 14.6672 1.3328 11.6822 1.3328 8C1.3328 4.31781 4.31781 1.3328 8 1.3328C11.6822 1.3328 14.6672 4.31781 14.6672 8Z" stroke="#B2BCD1" stroke-linecap="round" stroke-width="2" fill="none"/>
  </symbol>
  <symbol id="icon-info-purple" viewBox="0 0 15.33 16">
    <path d="M7.665 10.6975V8.03145M7.665 5.36545H7.67166M14.33 8.03145C14.33 11.7124 11.346 14.6965 7.665 14.6965C3.98402 14.6965 1 11.7124 1 8.03145C1 4.35048 3.98402 1.36646 7.665 1.36646C11.346 1.36646 14.33 4.35048 14.33 8.03145Z" stroke="#7C3AED" stroke-linecap="round" stroke-width="2" fill="none"/>
  </symbol>
  <symbol id="icon-mail" viewBox="0 0 16 16">
    <path d="M14.6672 4.667L8.67272 8.48462C8.4693 8.60275 8.23824 8.66497 8.003 8.66497C7.76776 8.66497 7.5367 8.60275 7.33328 8.48462L1.3328 4.667M2.66624 2.6672H13.3338C14.0702 2.6672 14.6672 3.26409 14.6672 4.0004V11.9996C14.6672 12.7359 14.0702 13.3328 13.3338 13.3328H2.66624C1.9298 13.3328 1.3328 12.7359 1.3328 11.9996V4.0004C1.3328 3.26409 1.9298 2.6672 2.66624 2.6672Z" stroke="#101828" stroke-linecap="round" stroke-width="2" fill="none"/>
  </symbol>
  <symbol id="icon-home" viewBox="0 0 24 24">
    <path d="M15 20.9992V12.9992C15 12.734 14.8946 12.4796 14.7071 12.2921C14.5196 12.1046 14.2652 11.9992 14 11.9992H10C9.73478 11.9992 9.48043 12.1046 9.29289 12.2921C9.10536 12.4796 9 12.734 9 12.9992V20.9992M3 9.99968C2.99993 9.70875 3.06333 9.4213 3.18579 9.1574C3.30824 8.89349 3.4868 8.65948 3.709 8.47168L10.709 2.47168C11.07 2.16659 11.5274 1.9992 12 1.9992C12.4726 1.9992 12.93 2.16659 13.291 2.47168L20.291 8.47168C20.5132 8.65948 20.6918 8.89349 20.8142 9.1574C20.9367 9.4213 21.0001 9.70875 21 9.99968V18.9997C21 19.5301 20.7893 20.0388 20.4142 20.4139C20.0391 20.789 19.5304 20.9997 19 20.9997H5C4.46957 20.9997 3.96086 20.789 3.58579 20.4139C3.21071 20.0388 3 19.5301 3 18.9997V9.99968Z" stroke="#101828" stroke-linecap="round" stroke-width="2" fill="none"/>
  </symbol>
  <symbol id="icon-bar-chart" viewBox="0 0 24 24">
    <path d="M4.9992 21V15M12 21V9M19.0008 21V3" stroke="#9CA3AF" stroke-linecap="round" stroke-width="2" fill="none"/>
  </symbol>
  <symbol id="icon-zap" viewBox="0 0 24 24">
    <path d="M3.46591 13.8471C3.62617 13.9477 3.81168 14.0008 4.0009 14.0001H11.0001C11.1618 13.9996 11.3213 14.0383 11.4648 14.113C11.6083 14.1876 11.7315 14.296 11.8239 14.4287C11.9163 14.5615 11.9752 14.7147 11.9954 14.8752C12.0156 15.0357 11.9966 15.1987 11.94 15.3502L10.0202 21.3706C9.99015 21.4799 9.99814 21.5963 10.0429 21.7005C10.0876 21.8047 10.1665 21.8906 10.2665 21.9441C10.3665 21.9976 10.4817 22.0155 10.5932 21.9949C10.7047 21.9742 10.8059 21.9163 10.8801 21.8306L20.779 11.63C20.8982 11.483 20.9733 11.3052 20.9955 11.1173C21.0177 10.9294 20.9861 10.739 20.9045 10.5683C20.8228 10.3976 20.6943 10.2535 20.5341 10.1529C20.3738 10.0523 20.1883 9.99924 19.9991 9.99988H12.9999C12.8382 10.0004 12.6787 9.96169 12.5352 9.88703C12.3917 9.81239 12.2685 9.70404 12.1761 9.57128C12.0837 9.43853 12.0248 9.28533 12.0046 9.12484C11.9844 8.96434 12.0034 8.80133 12.06 8.6498L13.9798 2.62944C14.0099 2.52008 14.0019 2.40375 13.9571 2.29953C13.9124 2.19531 13.8335 2.10941 13.7335 2.05591C13.6335 2.00242 13.5183 1.98451 13.4068 2.00514C13.2953 2.02576 13.1941 2.08369 13.1199 2.16941L3.22099 12.37C3.10178 12.517 3.02671 12.6948 3.00451 12.8827C2.98231 13.0707 3.01387 13.261 3.09555 13.4317C3.17722 13.6025 3.30565 13.7465 3.46591 13.8471Z" stroke="#9CA3AF" stroke-linecap="round" stroke-width="2" fill="none"/>
  </symbol>
  <symbol id="icon-bell" viewBox="0 0 24 24">
    <path d="M10.2668 21.0008C10.4423 21.3048 10.6948 21.5573 10.9988 21.7329C11.3028 21.9084 11.6477 22.0008 11.9988 22.0008C12.3499 22.0008 12.6947 21.9084 12.9988 21.7329C13.3028 21.5573 13.5553 21.3048 13.7308 21.0008M3.26127 15.3263C3.13064 15.4695 3.04442 15.6476 3.01313 15.8389C2.98183 16.0302 3.00679 16.2264 3.08498 16.4038C3.16317 16.5812 3.29121 16.732 3.45353 16.8379C3.61586 16.9439 3.80546 17.0003 3.99929 17.0005H19.9996C20.1934 17.0005 20.3831 16.9443 20.5455 16.8386C20.7079 16.7328 20.8361 16.5822 20.9145 16.4049C20.9929 16.2277 21.0181 16.0315 20.9871 15.8402C20.956 15.6488 20.8701 15.4707 20.7396 15.3273C19.4096 13.9562 17.9996 12.4991 17.9996 7.99971C17.9996 6.40827 17.3674 4.88202 16.2422 3.75671C15.1169 2.63139 13.5908 1.9992 11.9995 1.9992C10.4081 1.9992 8.88197 2.63139 7.75673 3.75671C6.63149 4.88202 5.99933 6.40827 5.99933 7.99971C5.99933 12.4991 4.5883 13.9562 3.26127 15.3263Z" stroke="#9CA3AF" stroke-linecap="round" stroke-width="2" fill="none"/>
  </symbol>
  <symbol id="icon-settings" viewBox="0 0 24 24">
    <path d="M9.67056 4.13697C9.72566 3.55731 9.99489 3.01902 10.4257 2.62725C10.8564 2.23549 11.4178 2.0184 12.0001 2.0184C12.5823 2.0184 13.1437 2.23549 13.5745 2.62725C14.0052 3.01902 14.2745 3.55731 14.3296 4.13697C14.3627 4.51143 14.4855 4.87239 14.6877 5.18931C14.8899 5.50623 15.1654 5.76978 15.491 5.95765C15.8166 6.14552 16.1827 6.25217 16.5583 6.26859C16.9338 6.28501 17.3078 6.21071 17.6486 6.05197C18.1777 5.81175 18.7772 5.77699 19.3306 5.95446C19.8839 6.13193 20.3514 6.50892 20.6421 7.01208C20.9328 7.51523 21.0258 8.10855 20.9032 8.67654C20.7806 9.24454 20.451 9.74659 19.9786 10.085C19.6709 10.3008 19.4198 10.5876 19.2465 10.921C19.0731 11.2544 18.9826 11.6247 18.9826 12.0005C18.9826 12.3763 19.0731 12.7465 19.2465 13.0799C19.4198 13.4134 19.6709 13.7001 19.9786 13.916C20.451 14.2544 20.7806 14.7564 20.9032 15.3244C21.0258 15.8924 20.9328 16.4857 20.6421 16.9889C20.3514 17.492 19.8839 17.869 19.3306 18.0465C18.7772 18.224 18.1777 18.1892 17.6486 17.949C17.3078 17.7902 16.9338 17.7159 16.5583 17.7324C16.1827 17.7488 15.8166 17.8554 15.491 18.0433C15.1654 18.2312 14.8899 18.4947 14.6877 18.8116C14.4855 19.1286 14.3627 19.4895 14.3296 19.864C14.2745 20.4436 14.0052 20.9819 13.5745 21.3737C13.1437 21.7655 12.5823 21.9825 12.0001 21.9825C11.4178 21.9825 10.8564 21.7655 10.4257 21.3737C9.99489 20.9819 9.72566 20.4436 9.67056 19.864C9.6375 19.4894 9.51466 19.1283 9.31242 18.8112C9.11019 18.4942 8.83453 18.2306 8.50879 18.0427C8.18305 17.8548 7.81683 17.7482 7.44114 17.7319C7.06545 17.7156 6.69136 17.79 6.35056 17.949C5.82145 18.1892 5.22189 18.224 4.66856 18.0465C4.11523 17.869 3.64773 17.492 3.35704 16.9889C3.06635 16.4857 2.97327 15.8924 3.09592 15.3244C3.21856 14.7564 3.54816 14.2544 4.02056 13.916C4.32818 13.7001 4.57929 13.4134 4.75265 13.0799C4.92601 12.7465 5.01651 12.3763 5.01651 12.0005C5.01651 11.6247 4.92601 11.2544 4.75265 10.921C4.57929 10.5876 4.32818 10.3008 4.02056 10.085C3.54882 9.74642 3.21981 9.24457 3.09746 8.67695C2.97511 8.10934 3.06817 7.51651 3.35854 7.01369C3.64892 6.51086 4.11587 6.13395 4.66865 5.95621C5.22143 5.77848 5.82054 5.81261 6.34956 6.05197C6.69032 6.21071 7.0643 6.28501 7.43986 6.26859C7.81542 6.25217 8.18149 6.14552 8.5071 5.95765C8.8327 5.76978 9.10825 5.50623 9.31042 5.18931C9.5126 4.87239 9.63544 4.51143 9.66856 4.13697M14.9993 12.0008C14.9993 13.6577 13.6561 15.0008 11.9993 15.0008C10.3424 15.0008 8.99925 13.6577 8.99925 12.0008C8.99925 10.344 10.3424 9.00082 11.9993 9.00082C13.6561 9.00082 14.9993 10.344 14.9993 12.0008Z" stroke="#9CA3AF" stroke-linecap="round" stroke-width="2" fill="none"/>
  </symbol>
  <symbol id="icon-chevron-right" viewBox="0 0 24 24">
    <path d="M9 18L15 12L9 6" stroke="#6B7280" stroke-linecap="round" stroke-width="2" fill="none"/>
  </symbol>
  <symbol id="icon-chevron-down" viewBox="0 0 16 16">
    <path d="M4 6L8 10L12 6" stroke="#9CA3AF" stroke-linecap="round" stroke-width="2" fill="none"/>
  </symbol>
</svg>