<svg xmlns="http://www.w3.org/2000/svg" viewBox="0 0 24 24" fill="none">
  <path d="M3.46591 13.8471C3.62617 13.9477 3.81168 14.0008 4.0009 14.0001H11.0001C11.1618 13.9996 11.3213 14.0383 11.4648 14.113C11.6083 14.1876 11.7315 14.296 11.8239 14.4287C11.9163 14.5615 11.9752 14.7147 11.9954 14.8752C12.0156 15.0357 11.9966 15.1987 11.94 15.3502L10.0202 21.3706C9.99015 21.4799 9.99814 21.5963 10.0429 21.7005C10.0876 21.8047 10.1665 21.8906 10.2665 21.9441C10.3665 21.9976 10.4817 22.0155 10.5932 21.9949C10.7047 21.9742 10.8059 21.9163 10.8801 21.8306L20.779 11.63C20.8982 11.483 20.9733 11.3052 20.9955 11.1173C21.0177 10.9294 20.9861 10.739 20.9045 10.5683C20.8228 10.3976 20.6943 10.2535 20.5341 10.1529C20.3738 10.0523 20.1883 9.99924 19.9991 9.99988H12.9999C12.8382 10.0004 12.6787 9.96169 12.5352 9.88703C12.3917 9.81239 12.2685 9.70404 12.1761 9.57128C12.0837 9.43853 12.0248 9.28533 12.0046 9.12484C11.9844 8.96434 12.0034 8.80133 12.06 8.6498L13.9798 2.62944C14.0099 2.52008 14.0019 2.40375 13.9571 2.29953C13.9124 2.19531 13.8335 2.10941 13.7335 2.05591C13.6335 2.00242 13.5183 1.98451 13.4068 2.00514C13.2953 2.02576 13.1941 2.08369 13.1199 2.16941L3.22099 12.37C3.10178 12.517 3.02671 12.6948 3.00451 12.8827C2.98231 13.0707 3.01387 13.261 3.09555 13.4317C3.17722 13.6025 3.30565 13.7465 3.46591 13.8471Z" stroke="#9CA3AF" stroke-linecap="round" stroke-width="2"/>
</svg>