<svg xmlns="http://www.w3.org/2000/svg" viewBox="0 0 24 24" fill="none">
  <path d="M10.2668 21.0008C10.4423 21.3048 10.6948 21.5573 10.9988 21.7329C11.3028 21.9084 11.6477 22.0008 11.9988 22.0008C12.3499 22.0008 12.6947 21.9084 12.9988 21.7329C13.3028 21.5573 13.5553 21.3048 13.7308 21.0008M3.26127 15.3263C3.13064 15.4695 3.04442 15.6476 3.01313 15.8389C2.98183 16.0302 3.00679 16.2264 3.08498 16.4038C3.16317 16.5812 3.29121 16.732 3.45353 16.8379C3.61586 16.9439 3.80546 17.0003 3.99929 17.0005H19.9996C20.1934 17.0005 20.3831 16.9443 20.5455 16.8386C20.7079 16.7328 20.8361 16.5822 20.9145 16.4049C20.9929 16.2277 21.0181 16.0315 20.9871 15.8402C20.956 15.6488 20.8701 15.4707 20.7396 15.3273C19.4096 13.9562 17.9996 12.4991 17.9996 7.99971C17.9996 6.40827 17.3674 4.88202 16.2422 3.75671C15.1169 2.63139 13.5908 1.9992 11.9995 1.9992C10.4081 1.9992 8.88197 2.63139 7.75673 3.75671C6.63149 4.88202 5.99933 6.40827 5.99933 7.99971C5.99933 12.4991 4.5883 13.9562 3.26127 15.3263Z" stroke="#9CA3AF" stroke-linecap="round" stroke-width="2"/>
</svg>