<svg xmlns="http://www.w3.org/2000/svg" viewBox="0 0 24 24" fill="none">
  <path d="M9.67056 4.13697C9.72566 3.55731 9.99489 3.01902 10.4257 2.62725C10.8564 2.23549 11.4178 2.0184 12.0001 2.0184C12.5823 2.0184 13.1437 2.23549 13.5745 2.62725C14.0052 3.01902 14.2745 3.55731 14.3296 4.13697C14.3627 4.51143 14.4855 4.87239 14.6877 5.18931C14.8899 5.50623 15.1654 5.76978 15.491 5.95765C15.8166 6.14552 16.1827 6.25217 16.5583 6.26859C16.9338 6.28501 17.3078 6.21071 17.6486 6.05197C18.1777 5.81175 18.7772 5.77699 19.3306 5.95446C19.8839 6.13193 20.3514 6.50892 20.6421 7.01208C20.9328 7.51523 21.0258 8.10855 20.9032 8.67654C20.7806 9.24454 20.451 9.74659 19.9786 10.085C19.6709 10.3008 19.4198 10.5876 19.2465 10.921C19.0731 11.2544 18.9826 11.6247 18.9826 12.0005C18.9826 12.3763 19.0731 12.7465 19.2465 13.0799C19.4198 13.4134 19.6709 13.7001 19.9786 13.916C20.451 14.2544 20.7806 14.7564 20.9032 15.3244C21.0258 15.8924 20.9328 16.4857 20.6421 16.9889C20.3514 17.492 19.8839 17.869 19.3306 18.0465C18.7772 18.224 18.1777 18.1892 17.6486 17.949C17.3078 17.7902 16.9338 17.7159 16.5583 17.7324C16.1827 17.7488 15.8166 17.8554 15.491 18.0433C15.1654 18.2312 14.8899 18.4947 14.6877 18.8116C14.4855 19.1286 14.3627 19.4895 14.3296 19.864C14.2745 20.4436 14.0052 20.9819 13.5745 21.3737C13.1437 21.7655 12.5823 21.9825 12.0001 21.9825C11.4178 21.9825 10.8564 21.7655 10.4257 21.3737C9.99489 20.9819 9.72566 20.4436 9.67056 19.864C9.6375 19.4894 9.51466 19.1283 9.31242 18.8112C9.11019 18.4942 8.83453 18.2306 8.50879 18.0427C8.18305 17.8548 7.81683 17.7482 7.44114 17.7319C7.06545 17.7156 6.69136 17.79 6.35056 17.949C5.82145 18.1892 5.22189 18.224 4.66856 18.0465C4.11523 17.869 3.64773 17.492 3.35704 16.9889C3.06635 16.4857 2.97327 15.8924 3.09592 15.3244C3.21856 14.7564 3.54816 14.2544 4.02056 13.916C4.32818 13.7001 4.57929 13.4134 4.75265 13.0799C4.92601 12.7465 5.01651 12.3763 5.01651 12.0005C5.01651 11.6247 4.92601 11.2544 4.75265 10.921C4.57929 10.5876 4.32818 10.3008 4.02056 10.085C3.54882 9.74642 3.21981 9.24457 3.09746 8.67695C2.97511 8.10934 3.06817 7.51651 3.35854 7.01369C3.64892 6.51086 4.11587 6.13395 4.66865 5.95621C5.22143 5.77848 5.82054 5.81261 6.34956 6.05197C6.69032 6.21071 7.0643 6.28501 7.43986 6.26859C7.81542 6.25217 8.18149 6.14552 8.5071 5.95765C8.8327 5.76978 9.10825 5.50623 9.31042 5.18931C9.5126 4.87239 9.63544 4.51143 9.66856 4.13697M14.9993 12.0008C14.9993 13.6577 13.6561 15.0008 11.9993 15.0008C10.3424 15.0008 8.99925 13.6577 8.99925 12.0008C8.99925 10.344 10.3424 9.00082 11.9993 9.00082C13.6561 9.00082 14.9993 10.344 14.9993 12.0008Z" stroke="#9CA3AF" stroke-linecap="round" stroke-width="2"/>
</svg>